<svg width="1334" height="1334" viewBox="0 0 1334 1334" fill="none" xmlns="http://www.w3.org/2000/svg">
<path d="M448 996.5L399 925.5L460.5 906.5L525 897L591 887.5L689 897H763C790.833 898.667 850.2 902.9 865 906.5C879.8 910.1 921.833 920.667 941 925.5L922 961.5L846.5 1029.5L778.5 1064L689 1075H608.5L506 1043.5L448 996.5Z" fill="#CABFA2" stroke="black"/>
<path d="M334 150L354.5 118L409 133L469 195L512 247.5L561 234.5H681H786L827.5 247.5L855.5 195L904.5 150L946 118L989 104.5L1004 161L989 234.5L946 307.5L989 369.5L1021 506.5V639.5L989 795.5L946 934.5L889.5 908L722.5 887.5L448.5 908L397.5 934.5L354.5 823.5L334 722.5L322.5 549.5L334 429.5L369.5 352.5L397.5 307.5L369.5 283L334 217.5V150Z" fill="#4E352B" stroke="black"/>
<path d="M42.6665 666.667V1298.67H666.667H1290.67V666.667V34.6669H666.667H42.6665V666.667ZM1282.67 666.667V1290.67H666.667H50.6665V666.667V42.6669H666.667H1282.67V666.667Z" fill="black"/>
<path d="M652.4 69.4671C635.2 78.0004 621.866 105.334 615.333 145.334C614.266 152.267 613.333 158.534 613.333 159.067C613.333 159.734 610.266 157.467 606.533 154.134C597.466 145.867 583.466 136.8 574.933 133.467C566.666 130.134 554.933 129.867 549.466 132.667C538.4 138.267 539.866 164.8 553.333 207.067C556.266 216 558.4 223.334 558.266 223.467C557.6 224 513.066 234.8 512.8 234.4C512.666 234.134 509.333 227.6 505.466 219.867C479.6 167.734 402.266 101.734 364 98.9338C353.066 98.1338 346.533 100.134 342 105.6C328.8 121.2 321.866 158 325.066 193.867C329.2 239.067 343.6 271.867 371.466 299.334L383.6 311.334L373.733 323.334C335.466 369.6 314.533 426.8 309.2 499.867C307.333 524.8 308.4 598 311.333 639.334C319.333 755.2 339.866 843.067 375.466 913.334C393.733 949.467 409.866 972.534 435.866 999.2C482.8 1047.2 538 1074.27 612 1085.6C628.666 1088.13 636.666 1088.53 670.666 1088.53C713.066 1088.53 731.333 1086.67 762 1079.33C917.866 1042.13 1003.6 906.4 1022.67 666C1027.33 606.534 1028.4 514.267 1024.67 481.867C1017.33 417.6 994.8 361.067 960.8 322.267C956 316.667 952 311.867 952 311.734C952 311.467 957.866 305.334 965.066 298C980 282.667 989.066 269.867 996.133 253.467C1006.13 230.267 1010.67 206.4 1010.67 177.334C1010.67 140.267 1003.07 112.667 990.133 102.534C984.666 98.2671 971.066 97.4671 961.066 100.667C914.533 116 846 180.134 826.533 226.667C824.933 230.667 823.333 234.267 823.2 234.534C822.933 234.8 814.133 232.8 803.733 230.134C793.2 227.467 783.733 225.334 782.666 225.334C777.066 225.2 776.933 223.467 781.866 208.134C790 182.534 793.6 163.6 793.066 150.267C792.666 138.8 792.533 138.4 788.133 134.4C783.866 130.534 783.2 130.4 774 130.934C762 131.467 749.466 137.467 733.6 150.134C727.733 154.8 722.533 158.667 722.133 158.667C721.733 158.667 721.333 156.934 721.333 154.8C721.333 147.867 716.133 123.6 712.133 111.6C704.533 89.0671 694.933 75.2004 683.466 69.8671C674.4 65.6004 660.4 65.4671 652.4 69.4671ZM379.333 126.667C400.8 137.067 424.133 155.067 447.466 178.934C472.8 204.934 487.866 228.267 494.533 251.867C496 257.2 497.466 262 497.866 262.4C498.266 262.667 504.4 261.2 511.6 258.8C522.4 255.334 549.2 248.4 560.933 245.867C562.533 245.6 564 244.267 564.266 243.067C564.533 241.867 568 249.067 572 259.334C576 269.467 579.466 278.267 579.733 278.8C580 279.334 576.4 278.534 571.733 277.067C557.2 272.534 546.266 276.4 540.266 288C537.733 293.067 537.333 295.2 538 301.2C542.4 337.6 584.666 423.734 623.333 475.334C634.4 490.134 657.6 513.734 664.4 517.2C669.6 519.867 672.666 518 688.8 502C709.733 481.334 730.533 451.867 753.2 410.667C778.133 365.467 797.333 316.4 797.333 297.467C797.333 290.134 792.933 282.134 786.666 278.267C780.933 274.667 768.666 274.4 761.066 277.734C758.266 278.934 756 279.467 756 278.934C756 276 769.866 244.134 770.933 244.8C771.6 245.2 777.466 246.667 783.866 248C790.4 249.334 804 252.934 814.133 256C840.533 264.134 838 264.134 840 255.734C846.933 226.134 871.466 191.067 906.533 161.067C930.8 140.134 958.266 123.067 971.6 120.534C977.6 119.467 979.466 121.334 982.8 131.867C995.466 172.934 988.533 228.134 966.4 262C957.6 275.467 942.4 290.8 928.666 300C922.8 303.867 917.733 307.2 917.466 307.467C917.2 307.734 923.866 315.2 932.4 324C975.2 368.667 997.2 422 1004.13 497.334C1005.87 517.467 1005.07 601.867 1002.8 637.334C996.266 734.534 982 809.2 958 870.667C948.133 896.134 940 912.267 937.6 911.334C928.133 907.734 885.066 898.8 857.333 894.667C724.933 875.334 607.6 875.067 479.466 894.134C453.733 898 430.133 902.534 412.266 907.334C405.333 909.2 399.466 910.667 399.2 910.667C398.133 910.667 386.4 886.267 380.533 871.867C359.466 820.534 344.266 752.8 336.8 678C332.266 632.534 331.466 613.734 331.333 553.334C331.333 484.134 332.266 472.934 340.666 439.334C353.2 389.867 374.8 350.934 407.733 319.2L418.933 308.267L408.533 301.334C394.133 291.734 375.466 272.534 367.066 258.934C359.066 245.867 351.733 224.8 348.533 206C345.333 186.267 346.533 152.667 350.933 137.734C352.8 131.867 355.2 125.334 356.533 123.334C358.666 120.134 359.466 119.867 363.733 120.534C366.533 121.067 373.466 123.734 379.333 126.667ZM744.666 904.8C792.133 908.134 833.466 912.934 872.666 919.467C894.8 923.067 926.266 930.267 927.333 932C927.6 932.534 923.733 939.2 918.4 946.8C870.933 1016.13 808.133 1053.07 717.733 1064.8C694.533 1067.87 646.8 1067.87 623.6 1064.8C531.333 1052.8 465.6 1013.47 417.066 941.6C411.866 933.867 410.8 931.467 412.133 930.534C417.866 927.067 471.066 916.934 510 912C544.8 907.734 593.866 903.6 629.333 902.134C650.933 901.2 716.8 902.8 744.666 904.8Z" fill="black"/>
<path d="M520.533 608.533C513.333 611.733 505.866 619.6 501.866 628.267C498.533 635.6 498 638.267 498.133 648.667C498.133 663.067 500.933 672.4 506.933 678.533C514.4 686.133 518 687.333 532.666 687.333C544.4 687.333 546.666 686.933 552 684C563.066 677.733 569.066 662.4 567.6 643.733C567.2 638.8 565.6 632.133 564.266 628.933C560.8 621.067 552.533 612.133 546 609.2C539.6 606.267 526.533 606 520.533 608.533Z" fill="black"/>
<path d="M787.067 610.667C774.533 617.867 768 631.067 768 649.334C768 675.334 779.333 688 802.667 688C826 688 837.333 675.334 837.333 649.334C837.333 643.734 836.4 636.134 835.333 632.534C828.667 610.534 805.467 600.134 787.067 610.667Z" fill="black"/>
<path d="M600.4 982.667C593.866 985.6 592.666 988.667 593.733 999.467C594.666 1008.27 597.866 1014.27 604 1018.27C615.2 1025.87 628 1018.13 628 1003.73C628 989.2 621.6 980 611.733 980C608.533 980 603.466 981.2 600.4 982.667Z" fill="black"/>
<path d="M715.6 981.467C710 984.8 705.6 1000.4 708 1009.07C712 1024.13 729.867 1025.33 738.133 1011.2C742.267 1004.27 743.867 992 741.333 987.333C738.133 981.467 722 977.733 715.6 981.467Z" fill="black"/>
<path d="M785.733 1123.47C800 1126.93 811.6 1136.27 818.267 1149.47C827.867 1168.8 828 1204.4 818.4 1223.2C814 1231.87 803.467 1242 794.267 1246.13C786.8 1249.6 784.667 1250 772 1250C759.6 1250 757.067 1249.6 750.4 1246.4C727.867 1235.87 717.333 1213.47 719.067 1180C720.667 1147.6 735.733 1127.6 762 1122.8C771.867 1120.93 776 1121.07 785.733 1123.47ZM759.2 1146C748.133 1152.53 742.533 1172.93 745.2 1197.33C747.867 1221.2 758.933 1232.8 776.533 1230.13C792.933 1227.6 801.333 1209.33 799.6 1180.13C798.533 1160.93 792.933 1148.67 783.467 1144.53C776.533 1141.6 765.733 1142.13 759.2 1146Z" fill="black"/>
<path d="M555.733 1123.33C585.2 1129.73 597.2 1157.2 579.333 1177.07C572.4 1184.67 565.2 1188.8 546.667 1195.33C524.8 1203.2 521.067 1206.27 521.067 1216.67C521.067 1226.53 527.067 1230.67 541.467 1230.67C548.8 1230.67 552.133 1230 556.133 1227.73C561.333 1224.8 565.333 1218.53 565.333 1213.47C565.333 1210.8 566 1210.67 578.533 1210.67H591.867L591.067 1215.6C589.2 1228.67 578.267 1241.33 564.267 1246.8C558 1249.33 553.867 1249.87 541.333 1249.87C523.867 1250 517.733 1248.53 508.533 1242.13C492.267 1231.07 490.4 1206.93 504.667 1192.67C511.333 1185.87 518.667 1182 534.933 1176.27C556.8 1168.53 561.333 1164.93 561.333 1155.6C561.333 1149.47 556 1143.47 549.2 1142.13C534.8 1139.33 523.6 1144.4 521.467 1154.93L520.533 1159.33L507.6 1159.73L494.533 1160.13L495.467 1155.07C498.533 1138 511.067 1126.27 530 1122.8C539.867 1120.93 545.2 1121.07 555.733 1123.33Z" fill="black"/>
<path d="M468.267 1123.6L477.333 1124.13V1186.67V1249.33H434.667H392V1239.33V1229.33H421.333H450.667V1212V1194.67H426H401.333V1184.67V1174.67H426H450.667V1159.33V1144H422H393.333V1134V1124H419.6C434.133 1124 448.933 1123.73 452.667 1123.47C456.267 1123.2 463.333 1123.33 468.267 1123.6Z" fill="black"/>
<path d="M946.667 1186.67V1249.33H934H921.333V1222V1194.67H896H870.666V1222V1249.33H858H845.333V1186.67V1124H858H870.666V1149.33V1174.67H896H921.333V1149.33V1124H934H946.667V1186.67Z" fill="black"/>
<path d="M700 1186.53V1249.33H687.333H674.667V1226V1202.67H664.133H653.6L641.333 1226L629.2 1249.33H615.2H601.067L607.067 1238.27C610.267 1232.27 616.667 1220.4 621.2 1211.87L629.333 1196.53L624 1193.47C609.867 1185.47 603.2 1166.53 608.533 1149.07C611.333 1139.73 616.533 1133.87 626.4 1129.07L635.2 1124.67L667.6 1124.27L700 1123.87V1186.53ZM641.467 1145.87C635.6 1148.93 632.8 1154.27 632.667 1162.93C632.667 1168.53 633.333 1171.47 635.467 1174.27C640.267 1180.8 645.733 1182.67 660.933 1182.67H674.667V1163.33V1144H660C649.733 1144 644 1144.53 641.467 1145.87Z" fill="black"/>
</svg>
