<svg width="1334" height="1334" viewBox="0 0 1334 1334" fill="none" xmlns="http://www.w3.org/2000/svg">
<path d="M42.6665 666.667V1298.67H666.667H1290.67V666.667V34.6669H666.667H42.6665V666.667ZM1282.67 666.667V1290.67H666.667H50.6665V666.667V42.6669H666.667H1282.67V666.667Z" fill="black"/>
<path d="M421.467 146.8C414.533 148.134 408.667 151.467 397.867 160.267C374.8 178.934 359.067 206.534 352.4 239.867C349.2 256.267 349.467 289.067 353.067 309.334C359.867 347.467 376.133 388.134 397.067 419.2C416.8 448.8 452.133 478.134 491.6 498L505.333 504.8L492.533 512.8C435.2 548.267 393.733 601.334 372.267 667.067C360.267 703.6 355.867 731.734 356 773.334C356 874.534 391.067 932 472.8 964.4C513.333 980.534 566.933 988.8 640.667 990.267C844.267 994.134 938.933 947.067 961.333 831.067C966.8 802.4 967.867 762.4 964 730.667C954.4 653.2 917.867 583.334 862.933 537.2C850.933 527.067 828 511.067 820.8 507.867C818.8 506.934 817.467 505.734 817.6 505.2C817.867 504.8 824.4 500.934 832.267 496.934C896.667 463.734 934.933 419.067 957.867 350.667C985.067 269.067 971.867 198.4 922.133 158.667C905.867 145.867 893.6 143.334 879.333 149.867C857.2 160 839.467 190 790 302C748.8 394.934 732.667 435.6 726.533 461.734C724.133 472 723.067 474.534 721.333 474C703.867 468.667 617.333 468.667 599.867 474C598.267 474.534 597.467 472.934 596.267 466.267C592.8 447.2 576 402.934 549.333 342C492.4 212.134 476.133 180 457.2 160.934C444.8 148.534 434.533 144.4 421.467 146.8ZM433.733 166.534C449.2 172.4 468 205.467 511.067 302.667C562 417.734 576.8 456.134 578.267 477.734C579.6 495.067 582 496.534 603.467 492.8C633.467 487.467 676.667 486.934 708 491.334C735.6 495.334 736.667 495.334 739.6 492.134C741.6 490 742.533 486.667 743.067 478.934C744.133 463.334 753.333 436 773.333 388C785.6 358.8 820.667 279.467 835.733 247.067C862.267 189.6 879.733 165.334 894.133 165.334C902.933 165.334 921.867 181.867 933.333 199.334C961.467 242.667 958.8 310.934 926 378C912.533 405.867 898.8 424.667 879.867 441.467C854.933 463.6 826 481.067 796 492C784.133 496.4 780.133 500.534 782.133 506.267C783.067 509.334 786.933 511.867 801.333 519.334C854.133 546.8 888.667 582 915.333 635.334C927.867 660.534 935.733 682.667 940.667 707.334C946.133 734 947.067 746.934 946.267 781.734C945.733 809.867 945.2 816.134 942 830.534C929.867 888 899.733 923.2 843.2 946C798.267 964.134 724.667 973.467 642 971.6C529.733 968.934 460 949.467 419.867 909.334C397.867 887.334 384.8 860.267 377.867 822C374.4 802.934 374.267 745.867 377.733 724.267C387.6 661.867 414.533 607.067 455.467 566.134C475.867 545.867 496.133 531.334 523.867 517.467C538.667 510 541.467 506.8 539.2 500.4C538.133 497.334 535.733 496 524.8 491.734C485.867 477.067 447.733 451.2 424.933 424.134C398.667 393.067 378.267 346.4 371.2 301.6C368.267 282.267 369.2 249.334 373.2 234C377.867 216.4 388.133 197.6 399.867 185.067C416 168 424.8 163.2 433.733 166.534Z" fill="black"/>
<path d="M535.467 592.667C528.533 595.067 520.8 602.934 517.333 611.067C514.8 616.8 514.4 619.734 514.933 630.667C515.467 646.534 519.2 654.134 528.4 658.534C536.4 662.4 552.533 662.4 560 658.667C573.6 651.734 578.8 628 570.8 609.867C566.933 601.334 563.467 597.6 555.333 593.867C547.733 590.267 542.933 590 535.467 592.667Z" fill="black"/>
<path d="M770.4 591.867C749.733 598.533 740.533 626.267 751.866 648.267C756.666 657.867 763.333 661.333 777.2 661.333C794.533 661.2 802 655.867 806 640.533C809.466 627.2 807.866 615.2 801.333 604.933C794.933 594.8 780.4 588.667 770.4 591.867Z" fill="black"/>
<path d="M627.2 640.4C619.333 647.2 624.267 655.334 641.467 663.6L651.867 668.667L652 689.867V711.067L647.467 715.2C645.067 717.467 634.667 724.4 624.533 730.534C614.4 736.8 605.2 742.667 604.4 743.867C600 749.067 604.8 758.667 611.467 758.667C614.8 758.667 636.133 746.667 652.533 735.6C660.133 730.534 660.667 730.267 663.867 732.267C665.733 733.467 676 739.867 686.667 746.534C706.533 759.067 710.4 760.267 715.733 756.534C718.267 754.8 718.667 753.334 718.4 748.934L718 743.467L696.667 730.267C684.933 723.067 674.267 716.134 673.067 715.067C670.933 713.2 670.667 710.134 670.667 690.667V668.4L680.533 663.467C697.2 655.334 702.133 648.4 696.4 641.6C692.267 636.667 688 636.8 680 642C676 644.534 670.267 647.6 667.2 648.8C660.267 651.467 654.667 650 642.667 642.667C637.867 639.734 633.333 637.334 632.4 637.334C631.467 637.334 629.2 638.667 627.2 640.4Z" fill="black"/>
<path d="M795.999 1090.4C798.933 1091.33 801.599 1097.73 821.599 1151.33C833.866 1184.4 844.266 1212.4 844.799 1213.73C845.466 1215.87 844.533 1216 831.866 1215.73L818.266 1215.33L813.999 1202.67L809.733 1190H786.666H763.466L759.466 1202.93L755.599 1216H741.599C728.933 1216 727.733 1215.73 728.666 1213.6C729.066 1212.4 739.466 1184.67 751.599 1152C763.733 1119.33 774.133 1092.27 774.666 1091.6C775.866 1090.13 791.999 1089.2 795.999 1090.4ZM778.666 1144.67C774.799 1156.4 771.333 1166.8 770.933 1167.6C770.533 1168.93 774.266 1169.33 786.666 1169.33C800.399 1169.33 802.799 1169.07 802.266 1167.33C801.733 1166.27 798.266 1155.47 794.533 1143.33C790.666 1131.2 787.066 1121.73 786.533 1122.27C786.133 1122.93 782.533 1132.93 778.666 1144.67Z" fill="black"/>
<path d="M428.933 1090.27L448 1090.8V1100.67V1110.67H428.666H409.333V1163.33V1216H396.666H384V1163.33V1110.67H364.666H345.333V1100.67V1090.67H357.733C364.666 1090.67 379.2 1090.4 390.133 1090.13C401.066 1090 418.533 1090 428.933 1090.27Z" fill="black"/>
<path d="M948 1153.2V1216H935.333H922.666V1192.67V1169.33H912.266H902L890 1192.67L878 1216H864.266C856.8 1216 850.666 1215.6 850.666 1215.2C850.666 1214.8 856.8 1202.93 864.266 1188.93C876.666 1165.47 877.6 1163.33 875.333 1162.13C869.466 1158.67 860.666 1149.6 858.4 1144.27C854.666 1135.87 854.8 1119.33 858.666 1111.33C862 1104.4 868.933 1098 877.2 1094.13C882.8 1091.6 886.133 1091.33 915.6 1090.93L948 1090.4V1153.2ZM886.533 1115.6C882.933 1119.07 882.133 1121.07 881.6 1127.2C880.933 1136.27 882.933 1141.73 888.533 1145.73C892.133 1148.27 894.8 1148.67 907.6 1149.2L922.666 1149.6V1130V1110.4L906.666 1110.93C890.8 1111.33 890.666 1111.33 886.533 1115.6Z" fill="black"/>
<path d="M716 1153.33V1216H688.933C659.333 1216 649.466 1214.8 639.866 1209.87C617.866 1198.8 616.533 1162.8 637.733 1153.33L642.8 1151.07L638.133 1148.27C635.6 1146.8 631.866 1142.93 629.733 1139.87C626.4 1134.93 626 1132.93 626 1124.13C626.133 1107.33 632.8 1098.4 649.466 1093.2C656.4 1091.07 661.866 1090.67 686.8 1090.67H716V1153.33ZM657.866 1113.2C649.466 1118.27 648.666 1130.93 656.133 1138.13C660 1141.87 660.666 1142 675.466 1142.4L690.666 1142.93V1126.8V1110.67H676.266C664.533 1110.67 661.2 1111.07 657.866 1113.2ZM653.733 1164.27C647.866 1169.07 646.4 1180.67 650.666 1187.73C654.666 1194.27 660.266 1196 676.666 1196H690.666V1178.67V1161.47L677.6 1161.07C663.333 1160.67 657.066 1161.47 653.733 1164.27Z" fill="black"/>
<path d="M602.666 1153.33V1216H575.599C545.999 1216 536.133 1214.8 526.533 1209.87C504.533 1198.8 503.199 1162.8 524.399 1153.33L529.466 1151.07L524.799 1148.27C522.266 1146.8 518.533 1142.93 516.399 1139.87C513.066 1134.93 512.666 1132.93 512.666 1124.13C512.799 1107.33 519.466 1098.4 536.133 1093.2C543.066 1091.07 548.533 1090.67 573.466 1090.67H602.666V1153.33ZM544.533 1113.2C536.133 1118.27 535.333 1130.93 542.799 1138.13C546.666 1141.87 547.333 1142 562.133 1142.4L577.333 1142.93V1126.8V1110.67H562.933C551.199 1110.67 547.866 1111.07 544.533 1113.2ZM540.399 1164.27C534.533 1169.07 533.066 1180.67 537.333 1187.73C541.333 1194.27 546.933 1196 563.333 1196H577.333V1178.67V1161.47L564.266 1161.07C549.999 1160.67 543.733 1161.47 540.399 1164.27Z" fill="black"/>
<path d="M488 1153.33V1216H475.333H462.666V1153.33V1090.67H475.333H488V1153.33Z" fill="black"/>
</svg>
