<svg width="1334" height="1334" viewBox="0 0 1334 1334" fill="none" xmlns="http://www.w3.org/2000/svg">
<path d="M451 689.5L433 646V587C433 578.5 446 545.5 451 539.5C456 533.5 477.5 519 483.5 513C488.3 508.2 504.833 492 512.5 484.5L567 466C578.167 469.333 601.5 476 605.5 476C610.5 476 623 484.5 632 484.5C639.2 484.5 652.333 503.5 658 513H672.5C678.333 505.5 690.8 489.3 694 484.5C697.2 479.7 715.333 470.167 724 466H758.5L796 476L820 484.5L847.5 513L884.5 545.5C891.667 560 906 589.6 906 592V631.5L899 662L878.5 696.5L884.5 717L906 759.5V800L899 836.5L884.5 869L859 893L837.5 917L789 936L710 943.5H647L569 936L525.5 917L488.5 903.5L451 884.5C445 870 430.8 840.1 422 836.5C413.2 832.9 418.333 802 422 787L441.5 735L451 689.5Z" fill="#E5B092" stroke="black"/>
<path d="M341 400.5L393.5 411.5L432.5 448.5L467.5 411.5L509 387.5L561.5 359L587.5 344.5L583.5 313H601L662 326L723.5 341.5L747.5 359L797.5 387.5L870 424.5L904.5 448.5L922 424.5L964 400.5L1012 387.5H1057.5L1114.5 400.5C1130.5 404.167 1162.5 414.1 1162.5 424.5C1162.5 434.9 1188.83 459.5 1202 470.5L1219.5 531.5L1237 608V656.5L1219.5 706.5L1191 759L1162.5 798.5L1099.5 824.5L1040 835.5L979 824.5L946.5 853L904.5 883.5L856.5 907.5L870 879L904.5 824.5V759L880.5 678L904.5 641V595L880.5 551.5L856.5 518.5L819.5 492.5L797.5 470.5H762.5H723.5L688.5 492.5L662 518.5L640.5 492.5L601 470.5H561.5L509 492.5L467.5 531.5L432.5 573L421.5 628L450 695.5L432.5 741.5L421.5 798.5L432.5 853L467.5 907.5L421.5 883.5L393.5 853L358.5 824.5H327.5H240.5L185.5 798.5L129 759L111.5 695.5L96 656.5V628L111.5 551.5L129 492.5L155 448.5L185.5 411.5L240.5 400.5H341Z" fill="#8E5B47" stroke="black"/>
<path d="M974 560.5L950.5 512L991 478L1031 469L1070.5 478L1111.5 494L1140.5 529.5C1147.17 541.833 1160.5 568 1160.5 574V632C1160.5 639.5 1156.5 659 1154.5 668.5C1152.9 676.1 1140.83 692.667 1135 700L1111.5 724.5L1070.5 746H1025.5L998 740.5V712.5C995.667 700 991 673.7 991 668.5V624.5C991 618.5 979.667 579.333 974 560.5Z" fill="#E6B092" stroke="black"/>
<path d="M213.5 503L184.5 544.5L176.564 593L170 631C174.833 649 184.5 686.5 184.5 692.5C184.5 698.5 203.833 720.667 213.5 731L263 746.5H322.5L332.5 731C332.167 718.167 331.7 691 332.5 685C333.5 677.5 338 644.5 339 635.5C340 626.5 352.5 590.5 352.5 584C352.5 578.8 361.5 555.5 366 544.5L376 503L352.5 479.5L309 469.5L274 479.5L213.5 503Z" fill="#E6B092"/>
<path d="M175.5 599.5L176.564 593M176.564 593L184.5 544.5L213.5 503L274 479.5L309 469.5L352.5 479.5L376 503L366 544.5C361.5 555.5 352.5 578.8 352.5 584C352.5 590.5 340 626.5 339 635.5C338 644.5 333.5 677.5 332.5 685C331.7 691 332.167 718.167 332.5 731L322.5 746.5H263L213.5 731C203.833 720.667 184.5 698.5 184.5 692.5C184.5 686.5 174.833 649 170 631L176.564 593Z" stroke="black"/>
<path d="M42.6665 666.667V1298.67H666.667H1290.67V666.667V34.6669H666.667H42.6665V666.667ZM1282.67 666.667V1290.67H666.667H50.6665V666.667V42.6669H666.667H1282.67V666.667Z" fill="black"/>
<path d="M578.666 303.6C576.133 304.934 572.933 308.134 571.733 310.667C568.8 316.4 568.666 328.267 571.2 335.734C572.266 338.8 572.8 341.467 572.266 341.867C571.733 342.134 568 343.334 563.866 344.534C553.466 347.467 543.866 354.133 540.666 360.667C538.266 365.467 536.266 366.8 518.533 375.6C495.466 387.067 468.933 404.533 448.8 421.467L434.4 433.6L430.8 430.8C418 420.4 403.466 410 394.133 404.933C333.6 370.933 246.533 372.133 187.6 407.6C125.333 445.067 90.2663 518 87.0663 616.667C84.6663 688.4 103.066 742.133 143.866 782.667C177.2 815.733 219.2 834.133 275.333 840.133C298.4 842.533 326.666 839.6 350.4 832.133L358.4 829.733L364.8 838.533C378.666 857.6 403.466 880.667 426.266 895.733C453.866 913.733 485.333 927.467 526.133 939.067C572.8 952.4 598.666 956 658.133 956.933C756.533 958.667 822.666 946.933 882 917.333C921.2 897.733 950.266 872.8 970.8 841.333L977.333 831.2L992.266 834.933C1014 840.4 1034.8 842.133 1054.93 840.133C1193.6 826.667 1264.13 724.533 1240.53 571.333C1234 528.933 1220.67 491.867 1201.2 462.533C1191.2 447.467 1166.4 422.267 1152.27 412.933C1113.47 387.2 1065.33 376.133 1014.53 381.467C972.933 385.733 938.666 399.733 907.066 425.467C901.866 429.867 897.2 433.333 896.8 433.333C896.4 433.333 892.266 430 887.733 425.867C861.2 402.133 822.533 378 790.666 365.333C784.4 362.933 774.266 358 768.133 354.4C715.066 323.334 652.666 303.334 604 301.867C585.733 301.2 582.8 301.467 578.666 303.6ZM638 327.2C680.133 336 721.066 351.733 756.666 372.667C763.333 376.667 773.466 381.733 779.333 384C816.533 398.667 852.133 421.733 885.6 452.933C896.266 462.933 898.4 462.667 912.266 450C944.133 420.533 976.8 406.267 1020.8 402.533C1065.33 398.667 1109.2 409.333 1142 432.133C1152.4 439.333 1169.73 456.133 1178 467.067C1195.07 489.6 1209.07 522.533 1216 556.533C1229.6 622.8 1224.67 682.933 1202 727.2C1193.73 743.467 1185.47 754.667 1172 768C1142.93 796.8 1102.8 814 1053.47 818.667C1039.2 820 1017.73 818.8 1004.67 816.133C1001.07 815.333 991.866 812.8 984.4 810.4C968 805.333 967.333 805.6 958.8 819.867C941.066 849.867 914.533 875.2 882 893.467L874 897.867L882.533 888.4C910 858 923.6 819.067 919.866 780.533C918.666 766.667 917.6 762.267 912.4 746C909.466 736.667 895.733 707.2 890.666 699.2C889.2 696.8 889.866 695.067 896.933 683.2C908.8 663.467 913.333 649.467 915.333 626C919.466 577.6 881.466 513.6 828.533 479.733C805.733 465.2 773.2 454.667 750.8 454.667C719.6 454.667 690.933 469.2 671.2 494.8L665.2 502.533L651.6 488.8C632.533 469.467 618 461.867 593.866 458.533C571.333 455.333 541.866 461.867 514.533 476.133C473.866 497.467 438.4 538.667 423.066 582.667C417.066 599.733 415.466 610.133 416.4 627.867C417.6 651.2 422.533 667.067 434.933 686.933C438.4 692.667 441.333 698.133 441.333 699.2C441.333 700.267 438 707.333 434 714.933C419.333 742.667 412.533 764.667 411.066 788.8C409.466 816.533 418 847.733 434.4 873.067L436.666 876.667L432.666 874.133C413.733 862.267 391.066 839.333 376.266 817.2C367.466 804 365.333 803.2 353.733 808.133C334.666 816.267 302.666 820.8 278.533 818.667C228.933 814.4 188.533 796.933 158.533 766.8C139.333 747.467 128.533 729.733 119.066 702.267C111.2 678.8 108.933 662.4 108.8 628C108.8 576.133 116.4 537.867 134.133 500.133C143.866 479.467 154.4 464.267 168.666 449.867C204.133 414.267 254.266 397.733 311.333 402.533C354.8 406.267 388.266 421.2 421.6 451.6C434.133 463.2 435.466 463.067 450.133 449.2C478.533 422.533 512.933 400.133 548.933 385.067C556.933 381.733 557.333 381.333 558.933 375.2C560.4 369.733 561.333 368.533 566 366.533C568.933 365.2 576.933 363.467 583.866 362.533C603.066 360.133 605.2 355.867 596 338.134C593.066 332.534 590.666 326.667 590.666 325.067C590.666 322.4 591.066 322.267 606.4 323.067C614.933 323.467 629.2 325.334 638 327.2ZM763.333 477.333C815.6 484.667 868.133 530.933 888.4 587.333C898.133 614.533 895.333 643.333 880.533 668.667C865.6 694.133 865.066 696.933 872.8 711.6C890 743.733 896.266 760.667 898.533 781.067C903.333 824.133 881.2 868.933 842.533 894.533C782.133 934.4 660.133 946.533 552.933 923.467C487.333 909.2 445.6 871.333 434.133 815.6C431.466 802.8 431.466 791.6 434 776.8C437.066 759.6 440.8 749.467 452.533 726.667C467.066 698.267 467.066 698.133 451.466 672.8C436.8 648.8 433.466 618.933 442.533 592C450.533 568.267 463.466 547.333 482.533 527.6C502.4 507.067 523.066 493.6 547.6 485.333C593.066 470.133 629.733 484.267 652.666 525.6C657.066 533.467 658.8 535.467 662.4 536.533C668.933 538.4 672.8 536 676.533 527.467C685.733 506.8 703.733 488.8 722.8 481.333C735.2 476.4 747.866 475.2 763.333 477.333Z" fill="black"/>
<path d="M278.667 462.133C243.867 467.467 222 477.867 201.867 498.933C178 523.733 164.933 557.6 161.2 604C157.2 652.4 168.8 691.867 195.067 719.6C227.733 754.133 285.467 768.667 332.133 753.867C346.133 749.467 347.6 746.933 345.067 732.267C342.533 716.667 342.933 668.267 345.733 649.333C352.8 603.6 368.533 559.2 391.2 522C398.267 510.267 397.867 507.733 387.067 497.6C361.333 473.333 329.333 461.067 293.333 461.6C287.067 461.6 280.533 461.867 278.667 462.133ZM325.067 486.8C338 490 351.6 496.667 363.067 505.333L372 512L367.2 520.4C343.6 561.6 327.733 612.533 322.667 662.533C321.067 678.667 321.067 710.133 322.533 723.333C323.2 728.4 323.2 733.2 322.667 733.733C322.133 734.4 316.4 735.733 309.867 736.933C291.467 740.133 266.8 736.933 246.4 728.8C220.933 718.4 200.267 697.733 190.533 672.8C184.267 656.533 182.267 644.133 182.267 621.333C182.267 551.467 210.4 502.933 259.467 488.133C264.533 486.533 272.667 484.667 277.467 484C289.467 482.4 312.933 483.733 325.067 486.8Z" fill="black"/>
<path d="M1013.87 463.2C986.267 467.734 959.467 481.467 942.267 499.867C937.733 504.8 936 507.6 936 510.534C936 513.067 939.467 520.534 945.2 530.667C965.867 566.667 979.733 608 986.133 652.667C988.8 671.467 989.2 714.534 986.933 731.867C984.8 747.467 985.6 748.934 999.6 753.601C1016 759.201 1032.8 760.934 1050.4 758.934C1117.6 751.467 1159.47 712.401 1169.47 647.734C1171.47 634.4 1170.4 595.334 1167.47 579.334C1154.13 506.134 1109.2 464 1042 462C1031.33 461.6 1020.53 462.134 1013.87 463.2ZM1067.33 486.667C1102 495.467 1126.67 519.6 1139.47 557.467C1145.6 575.467 1148.13 590.4 1148.93 613.867C1150.27 650.4 1144.13 674.401 1127.6 696.934C1104.67 727.867 1056 744.667 1014.27 735.734C1007.87 734.401 1007.73 734.267 1008.53 730.134C1011.87 710.4 1010.4 666 1005.33 636.267C998.667 598 984.933 557.867 967.333 526.134C959.067 511.067 958.8 512.267 971.467 503.2C986.133 492.667 1004.27 485.867 1024 483.467C1033.33 482.4 1056.93 484.134 1067.33 486.667Z" fill="black"/>
<path d="M522 632.533C513.733 636.4 507.733 642.667 503.733 651.333C501.333 656.667 500.667 660.4 500.667 670C500.667 684.667 502.933 692.933 508.8 699.867C514.267 706.133 522.533 709.333 533.867 709.333C545.733 709.333 551.867 707.2 558.133 700.8C564.933 694.133 568 684.8 568 671.333C568 657.467 565.2 649.467 557.333 640.8C546.8 629.333 534.667 626.533 522 632.533Z" fill="black"/>
<path d="M789.333 630.534C778.8 634 772.533 639.734 767.467 650.534C763.067 660 762 669.6 764 681.067C766.133 694.4 771.2 701.867 780.8 706.267C787.333 709.2 789.6 709.6 799.2 709.067C821.733 707.867 830.8 697.067 831.067 671.334C831.2 658.4 828.933 650.934 821.867 641.734C815.067 632.667 799.2 627.2 789.333 630.534Z" fill="black"/>
<path d="M651.067 697.867C645.733 700.267 644 703.6 644 711.333C644 716.533 644.667 718.133 649.333 723.2L654.667 728.933V759.2V789.333H649.733C641.333 789.333 626.4 785.6 617.867 781.333C608.667 776.8 599.333 768.133 597.067 761.733C595.467 757.333 595.333 757.333 587.2 757.333C576.933 757.333 574.667 758.133 574.667 761.867C574.667 772.267 591.333 792.267 606.133 799.733C639.6 816.533 698.533 815.733 728.933 797.867C742.267 790.133 754 775.333 756.533 763.2C757.6 758.267 755.733 757.333 743.867 757.333C736.4 757.333 736.4 757.333 734 762.8C730.933 769.467 722 777.6 712.8 781.867C704.8 785.6 689.067 789.333 681.467 789.333H676V759.2V729.2L680 725.733C688.933 718.267 690.533 708.267 684.133 701.067C680.267 696.8 680 696.667 667.733 696.267C659.2 696.133 654 696.533 651.067 697.867Z" fill="black"/>
<path d="M811.733 1084C834.933 1091.6 848.133 1113.73 848.133 1145.33C848.133 1174.13 837.6 1194.53 817.6 1204.4C809.467 1208.4 808 1208.67 794.8 1208.67C782.133 1208.67 780 1208.27 772.533 1204.8C757.333 1197.87 745.867 1181.47 742.933 1162.67C737.067 1126 749.867 1094.67 774.533 1085.2C785.467 1081.07 800.933 1080.53 811.733 1084ZM784.533 1103.87C777.6 1107.07 771.6 1115.2 769.333 1124.4C766.933 1134.53 767.2 1158.93 770 1168.27C778.133 1196.53 811.467 1196.53 819.6 1168.4C822.533 1158.4 822.533 1131.47 819.733 1122.27C814.4 1105.2 799.2 1097.2 784.533 1103.87Z" fill="black"/>
<path d="M997.866 1083.6C998.4 1084 998.8 1112.27 998.8 1146.27V1208H985.466H972.133V1195.6C972.133 1188.93 972.8 1169.47 973.6 1152.53C974.4 1135.47 974.8 1120.53 974.533 1119.2C974.266 1117.87 966.666 1137.33 957.6 1162.4L941.066 1208.13L932.4 1207.73L923.6 1207.33L907.333 1162.27C898.4 1137.47 890.666 1116.8 890.133 1116.27C889.6 1115.73 889.466 1117.73 890 1120.67C890.4 1123.6 891.2 1144.4 891.733 1167.07L892.533 1208H879.733H866.8V1145.33V1082.53L883.6 1082.93L900.4 1083.33L916.133 1128.53C924.933 1153.33 932.133 1173.87 932.4 1174C932.666 1174.27 940 1153.87 948.8 1128.53L964.8 1082.67H980.933C989.733 1082.67 997.466 1083.07 997.866 1083.6Z" fill="black"/>
<path d="M722.8 1145.33V1208H710.133H697.466L697.2 1166.27L696.8 1124.67L671.733 1166.27L646.666 1208H634H621.466V1145.33V1082.67H634.133H646.8L647.066 1124.27L647.466 1166L672.533 1124.27L697.6 1082.67H710.266H722.8V1145.33Z" fill="black"/>
<path d="M598.8 1145.33V1208H586.133H573.466V1190.27V1172.67L566.4 1164.8L559.466 1157.07L543.466 1182.4L527.466 1207.87L512.4 1208C497.733 1208 497.466 1207.87 498.8 1205.33C499.6 1203.87 509.466 1188.53 520.8 1171.33C532.133 1154 541.466 1139.2 541.466 1138.4C541.466 1137.6 531.866 1124.93 520 1110.13L498.533 1083.33L513.6 1082.93L528.8 1082.53L531.866 1086.27C533.466 1088.27 543.466 1101.33 553.866 1115.07L572.8 1140.13L573.2 1111.33L573.466 1082.67H586.133H598.8V1145.33Z" fill="black"/>
<path d="M486.8 1145.33V1208H444.8H402.8V1198V1188H432.133H461.466V1170.67V1153.33H436.8H412.133V1144V1134.67L436.4 1134.4L460.8 1134L461.2 1118.27L461.6 1102.67H432.133H402.8V1092.67V1082.67H444.8H486.8V1145.33Z" fill="black"/>
<path d="M396.666 1086.93C395.466 1089.33 386.133 1107.33 376 1126.93L357.466 1162.53V1185.2V1208H344.8H332.133V1184.93C332.133 1172.27 331.6 1161.33 330.933 1160.53C330.4 1159.87 321.066 1142.13 310.266 1120.93L290.666 1082.67H304.4H318.266L331.466 1111.33C338.666 1127.2 344.666 1139.87 344.8 1139.73C345.066 1139.47 350.933 1126.67 358 1111.33L370.666 1083.33L384.8 1082.93L398.933 1082.53L396.666 1086.93Z" fill="black"/>
</svg>
