<svg width="1334" height="1334" viewBox="0 0 1334 1334" fill="none" xmlns="http://www.w3.org/2000/svg">
<path d="M475 756.5C469.4 758.9 393.333 797.5 356 816.5L366 871L432 945.5L551 990L660 1003L830.5 977L844.5 964L883.5 945.5L935 899.5L969.5 842.5L955 826.5L907.5 801L844.5 766.5L773 742C748.667 738.667 697.4 732 687 732H599.5C560.333 739.167 480.6 754.1 475 756.5Z" fill="#CA927A" stroke="black"/>
<path d="M491.5 290.5V342.5L495.5 362C507.333 361 532.4 358.8 538 358C543.6 357.2 568 347.333 579.5 342.5L608 320.5L598 290.5C592.333 285 580.7 272.6 579.5 267C578 260 569.5 234 567 226.5C565 220.5 557.167 213.333 553.5 210.5C543.667 216.333 522 229.2 514 234C506 238.8 495.667 273.667 491.5 290.5Z" fill="#A6A6A6"/>
<path d="M742.5 267L721 308C721 319.5 723.2 342.5 732 342.5C743 342.5 785 358 798 362C808.4 365.2 826 363.333 833.5 362C835.833 358.667 840.3 350.1 839.5 342.5C838.5 333 834 308 833.5 298C833 288 821 267 819.5 259.5C818.3 253.5 808.667 235 804 226.5L785 210.5L760.5 216.5L742.5 267Z" fill="#A6A6A6"/>
<path d="M491.5 290.5V342.5L495.5 362C507.333 361 532.4 358.8 538 358C543.6 357.2 568 347.333 579.5 342.5L608 320.5L598 290.5C592.333 285 580.7 272.6 579.5 267C578 260 569.5 234 567 226.5C565 220.5 557.167 213.333 553.5 210.5C543.667 216.333 522 229.2 514 234C506 238.8 495.667 273.667 491.5 290.5Z" stroke="black"/>
<path d="M742.5 267L721 308C721 319.5 723.2 342.5 732 342.5C743 342.5 785 358 798 362C808.4 365.2 826 363.333 833.5 362C835.833 358.667 840.3 350.1 839.5 342.5C838.5 333 834 308 833.5 298C833 288 821 267 819.5 259.5C818.3 253.5 808.667 235 804 226.5L785 210.5L760.5 216.5L742.5 267Z" stroke="black"/>
<path d="M256 366L320 417L385.5 435.5L344.5 540L333.5 616.5L352 714C384.833 728.833 454 758.5 468 758.5C482 758.5 542.833 743.5 571.5 736H707C753.833 745 848.5 763.8 852.5 767C856.5 770.2 930.5 813.333 967 834.5L983 774.5C986.333 737 993.3 660.3 994.5 653.5C995.7 646.7 987.333 611.333 983 594.5L939 540L783.5 417L688.5 302H644H621L606 324.5L584 338L550.5 359H503.5L487.5 346.5H468C463.5 338.333 453.7 320.7 450.5 315.5C447.3 310.3 432.833 278 426 262.5L396.5 233L363 209.5L322.5 185L264.5 191L235 209.5C231.333 225.167 223.7 257.7 222.5 262.5C221.3 267.3 244.334 333.5 256 366Z" fill="#EEEEEE" stroke="black"/>
<path d="M42.6665 666.667V1298.67H666.667H1290.67V666.667V34.6669H666.667H42.6665V666.667ZM1282.67 666.667V1290.67H666.667H50.6665V666.667V42.6669H666.667H1282.67V666.667Z" fill="black"/>
<path d="M269.066 176.667C247.733 181.067 235.066 192 227.333 212.667C222.933 224.267 221.733 230.134 220.133 247.067C217.066 278.4 224 314.934 238.666 346.134C263.333 398.667 299.333 427.067 357.333 440C364.266 441.6 370.133 442.934 370.4 443.2C370.533 443.467 369.6 445.734 368.133 448.134C359.866 462.134 346.533 496.4 339.333 522C326 569.467 320.8 610.267 320.666 668.667C320.533 774.667 340.133 851.867 380.533 905.334C389.866 917.6 412.266 939.334 424.933 948.4C444.266 962.134 478.666 980 492.4 983.467C495.466 984.134 497.2 986.4 501.733 995.6C521.467 1035.73 565.466 1065.07 621.733 1075.6C638.666 1078.8 675.866 1078.67 693.333 1075.6C732.4 1068.4 764.933 1052.4 789.333 1028C800.133 1017.33 813.733 998.267 815.467 991.067C816 988.934 818.933 987.334 828.4 984C835.2 981.734 848 976.267 856.933 972C930.8 936.8 972.933 878.534 991.2 786.667C999.067 747.2 1000.53 729.067 1000.67 671.334C1000.67 627.334 1000.27 614.8 998.266 600C990.266 540.134 977.467 494.8 957.2 454.267C954.267 448.534 952.133 443.467 952.4 443.067C952.8 442.8 959.2 441.067 966.8 439.467C1002.8 431.2 1028.13 418.134 1048.93 397.067C1074.8 370.667 1093.6 332.4 1100.13 292.267C1103.73 270.267 1103.2 241.067 1098.8 224.667C1089.47 189.467 1071.07 175.334 1034.67 175.467C1003.6 175.6 968.8 187.6 935.333 209.867C894.133 237.467 870 268 856.667 309.467C854 317.867 851.6 325.2 851.333 326C851.066 326.667 850.8 325.6 850.8 323.467C850.533 315.6 843.866 286.667 839.333 273.334C823.2 227.2 799.466 200 775.333 200C759.2 200 754.666 206 742.133 244.267C733.733 270 722.8 296 720.4 296C719.867 296 713.467 295.067 706.4 294C674.933 289.334 647.2 289.067 621.067 293.334C606.4 295.734 607.2 296.134 600.667 282.267C597.467 275.6 590.933 257.867 586 243.2C574 206.4 569.067 200 552.533 200C533.733 200 515.867 216.4 499.733 248.667C487.467 273.067 480.133 299.467 478.8 324C478.133 336.667 477.6 339.334 475.867 339.734C474.133 340 473.066 337.467 470.666 327.067C465.333 304 455.733 281.2 443.733 263.6C431.2 245.067 401.6 218.267 378.266 204.134C340.666 181.467 297.733 170.667 269.066 176.667ZM306.266 196C352.266 203.467 410.666 243.6 433.333 283.334C444 302.134 452.8 328.534 455.466 349.334C457.6 366.667 462.266 369.867 474.933 362.8L482.666 358.534L486.133 362.667C494.4 372.4 509.333 375.334 531.467 371.334C563.867 365.6 598.133 349.734 611.2 334.4C616.133 328.667 619.333 320.134 618.266 315.867C617.733 314.134 618.533 313.334 621.2 312.8C628 311.467 650.8 308.934 651.333 309.6C651.6 309.867 651.2 314.534 650.4 320C649.733 325.467 649.333 338.134 649.733 348C650.666 372.534 655.067 386.267 668.133 405.6C682.8 427.2 700.4 443.067 738 468.4C782.133 498.267 783.6 499.6 813.066 533.6C851.066 577.6 872.933 595.867 903.2 608.934C924.267 617.867 946.933 622.667 969.333 622.667H981.066L982 634.134C983.466 651.6 981.866 715.6 979.333 736.667C976.266 762.934 972.533 784.8 967.733 803.334C965.467 812.134 963.466 819.734 963.066 820.267C962.8 820.8 956.133 816.8 948.266 811.467C899.866 778.267 835.466 749.734 775.333 734.8C736 725.067 699.467 720.667 658.667 720.8C618.133 720.934 585.6 724.934 545.866 734.934L533.6 738.134L526 730.934C503.733 710.267 481.333 699.2 454.933 696C437.333 693.867 431.6 691.467 422.8 682.8C418.666 678.667 410.266 668 404.266 659.2C392.266 641.467 385.066 633.867 375.066 628.8C366.933 624.8 354.133 621.334 346.666 621.334H341.2L342 611.6C345.733 570.8 357.466 520.934 371.6 486.667C376.8 474 387.866 451.734 392.8 443.867C394.533 441.067 396 437.067 396 434.934C396 428.134 393.6 426.534 379.466 424.4C329.466 417.067 296.133 399.067 273.066 367.2C258.533 346.8 249.866 327.6 242.933 300C239.733 287.334 239.466 283.6 239.466 261.334C239.466 238.4 239.733 236 242.933 226.4C249.2 207.467 256.666 199.067 269.733 196C276 194.4 296.8 194.534 306.266 196ZM558 222.134C559.2 224 563.6 235.867 567.6 248.4C578 280.534 586.8 301.067 596.933 316.8C598.533 319.334 598.267 320 594.4 323.867C584.133 334 558.666 345.734 536 350.8C524.533 353.334 506 354.134 503.067 352.267C499.6 350.134 497.333 341.334 497.333 330.8C497.333 290.934 523.2 232.534 546 220.8C551.733 217.734 555.333 218.134 558 222.134ZM785.6 222.534C797.333 230 810.666 250.934 820.4 277.334C832.266 309.2 834.666 346.934 825.333 352C821.733 353.867 807.067 353.6 795.733 351.467C774.933 347.334 746.533 335.067 735.733 325.334L730 320.134L732.533 315.734C744.4 295.067 752.533 275.2 763.6 240.8C771.066 217.334 773.866 215.067 785.6 222.534ZM704.667 742C762.133 747.867 821.067 765.2 877.2 792.667C905.6 806.534 935.466 824.667 953.066 838.4L956.266 840.8L950.4 853.467C926.133 904.934 885.733 941.734 829.467 963.2L823.733 965.467L824.533 955.734C825.6 943.067 823.6 926.8 819.467 914.4C816.267 904.8 816.266 904.667 818.8 902C831.066 888.667 818.4 874 789.866 868.667C777.066 866.134 766.933 866.134 754 868.667C741.333 871.067 730.4 876 725.2 881.467C720.666 886.267 719.866 894.667 723.466 899.734C728.8 907.467 745.733 914 764 915.6L775.333 916.667L778.533 924.667C783.2 936.534 783.866 952.8 780.133 965.067C775.866 979.2 775.6 979.334 754.666 982.534C722.533 987.334 702.933 988.667 662 988.667C613.733 988.667 578.4 985.6 545.733 978.667C539.2 977.2 538.933 977.067 536.133 969.734C530.666 955.334 531.067 936.534 537.333 922L539.733 916.4L551.067 915.6C571.867 914 588.133 906.667 592.933 896.8C596.8 888.534 592.4 880.934 580.133 874.667C571.466 870.4 554.267 866.667 542.667 866.667C524.667 866.667 504.533 872.934 496.266 881.2C490.8 886.8 490.4 894.267 495.333 900.8C498.533 904.934 498.533 905.2 496.533 910.934C492.4 922.534 490.533 933.867 490.533 947.467C490.533 957.467 490.133 961.334 488.933 961.334C488 961.334 480.4 958 472 953.867C427.733 932.534 396 901.6 374.933 859.334C364.933 839.334 364.533 841.6 379.066 831.467C446.266 784.667 535.6 750.667 613.866 742C635.733 739.6 681.733 739.6 704.667 742ZM590 1004.93C617.733 1008.4 703.066 1008.27 732.4 1004.93C744 1003.47 753.866 1002.67 754.133 1003.07C755.2 1004.13 738.8 1015.33 728.533 1020.4C707.733 1030.8 684.133 1036 657.333 1036C629.733 1036 604.133 1030 583.067 1018.67C573.067 1013.33 558.667 1003.07 558.667 1001.33C558.667 1000.8 561.467 1000.93 565.067 1001.47C568.533 1002.13 579.733 1003.73 590 1004.93Z" fill="black"/>
<path d="M530.666 555.467C524.266 558.267 519.066 563.467 514.933 571.334C511.866 577.067 511.466 579.734 511.333 590C511.333 600.534 511.866 602.934 515.066 609.6C518.133 616 519.866 617.734 525.6 620.534C538.666 627.067 556.266 624.4 564.266 614.934C569.333 608.934 571.2 602.134 571.2 590C571.2 578.134 568.133 569.067 561.6 562.134C554 554 540.666 551.2 530.666 555.467Z" fill="black"/>
<path d="M761.733 556.134C755.2 559.334 750 565.067 746.533 572.667C743.733 578.8 743.066 597.334 745.333 605.6C748.533 617.067 758.933 623.867 773.066 624C793.2 624 804 612.4 804 590.534C804 563.867 782 546 761.733 556.134Z" fill="black"/>
<path d="M780.933 1090.67C799.733 1094.67 813.466 1108.93 819.066 1130.27C821.733 1140.53 821.733 1168.8 819.066 1179.07C814.666 1195.73 805.6 1207.6 792 1214.27C785.066 1217.6 783.066 1218 769.066 1218C755.066 1218 753.066 1217.73 745.733 1214.27C731.733 1207.73 722 1195.47 720.133 1182L719.333 1176H732H744.666L745.6 1181.33C747.866 1195.47 765.466 1202.93 780.666 1196.13C791.733 1191.07 796.666 1175.2 795.333 1148.8C794.533 1132.4 793.2 1126.53 788.666 1119.87C784.133 1113.07 778 1110.13 768.4 1110.27C755.2 1110.4 746.933 1116.67 745.466 1128L744.666 1133.33H731.733H718.666L720.266 1126.13C724 1110 735.6 1096.93 749.733 1092.67C758.266 1090 773.333 1089.07 780.933 1090.67Z" fill="black"/>
<path d="M665.466 1091.47C679.733 1094.93 691.333 1104.27 698 1117.47C707.6 1136.8 707.733 1172.4 698.133 1191.2C693.733 1199.87 683.2 1210 674 1214.13C666.533 1217.6 664.4 1218 651.733 1218C639.333 1218 636.8 1217.6 630.133 1214.4C607.6 1203.87 597.066 1181.47 598.8 1148C600.4 1115.6 615.466 1095.6 641.733 1090.8C651.6 1088.93 655.733 1089.07 665.466 1091.47ZM638.933 1114C627.866 1120.53 622.266 1140.93 624.933 1165.33C627.6 1189.2 638.666 1200.8 656.266 1198.13C672.666 1195.6 681.066 1177.33 679.333 1148.13C678.266 1128.93 672.666 1116.67 663.2 1112.53C656.266 1109.6 645.466 1110.13 638.933 1114Z" fill="black"/>
<path d="M520.266 1091.73L524.266 1092.67L534.266 1134.93C539.733 1158.27 544.533 1177.07 544.933 1176.67C545.2 1176.27 549.2 1157.2 553.733 1134.27L561.866 1092.67L574.666 1092.27L587.466 1091.87L586.4 1096.93C585.733 1099.73 579.733 1126.53 573.066 1156.67C566.4 1186.67 560.533 1212.67 560.133 1214.27C559.466 1217.2 558.8 1217.33 546.533 1217.33H533.733L523.866 1177.6C518.4 1155.87 513.733 1137.6 513.2 1137.07C512.8 1136.53 507.866 1154.4 502.533 1176.8L492.533 1217.33H479.6C467.333 1217.33 466.666 1217.2 466 1214.27C465.6 1212.67 459.733 1186.67 453.066 1156.67C446.4 1126.53 440.4 1099.73 439.733 1096.93L438.666 1091.87L451.466 1092.27L464.266 1092.67L472.4 1134.27C476.8 1157.07 480.666 1176.13 481.066 1176.53C481.466 1176.93 486.266 1158.53 491.6 1135.6C497.066 1112.67 501.733 1093.6 502.266 1093.07C503.466 1091.6 516 1090.8 520.266 1091.73Z" fill="black"/>
</svg>
